<svg width="141" height="42" viewBox="0 0 141 42" fill="none" xmlns="http://www.w3.org/2000/svg">
<path d="M134.976 40.7627H5.27974C2.65137 40.7627 0.521484 38.6328 0.521484 36.0044V5.27974C0.521484 2.65137 2.65137 0.521484 5.27974 0.521484H134.976C137.604 0.521484 139.734 2.65137 139.734 5.27974V36.0044C139.734 38.6328 137.604 40.7627 134.976 40.7627Z" fill="black"/>
<path d="M5.27688 1.04228C2.94055 1.04228 1.03977 2.94307 1.03977 5.27939V36.0041C1.03977 38.3404 2.94055 40.2412 5.27688 40.2412H134.976C137.312 40.2412 139.213 38.3404 139.213 36.0041V5.27939C139.213 2.94307 137.312 1.04228 134.976 1.04228H5.27688ZM134.976 41.2835H5.27688C2.36654 41.2835 0 38.9144 0 36.0041V5.27939C0 2.36906 2.36654 0 5.27688 0H134.976C137.886 0 140.253 2.36906 140.253 5.27939V36.0041C140.253 38.9144 137.886 41.2835 134.976 41.2835Z" fill="#A7A9AB"/>
<path d="M48.6346 10.8048L48.1009 9.13313C47.97 8.72024 47.8592 8.25952 47.7585 7.86678H47.7384C47.6402 8.25952 47.537 8.73031 47.4187 9.13313L46.895 10.8048H48.6346ZM46.6936 11.7388L46.1095 13.6623H44.8306L47.0058 6.87988H48.5843L50.7872 13.6623H49.4604L48.8461 11.7388" fill="white"/>
<path d="M52.6377 8.76367L53.4333 11.246C53.5742 11.679 53.6724 12.0718 53.7631 12.4746H53.7933C53.8839 12.0718 53.9947 11.6891 54.1256 11.246L54.9111 8.76367H56.2076L54.3371 13.6629H53.1211L51.2983 8.76367" fill="white"/>
<path d="M59.9414 11.2656C59.0653 11.2555 58.2295 11.4368 58.2295 12.182C58.2295 12.6654 58.5417 12.8869 58.9344 12.8869C59.4354 12.8869 59.7904 12.5647 59.9087 12.2122C59.9414 12.1216 59.9414 12.031 59.9414 11.9403V11.2656ZM61.1474 12.4841C61.1474 12.9272 61.1675 13.3602 61.2279 13.6598H60.1101L60.022 13.1186H59.9893C59.6998 13.4987 59.1862 13.7706 58.5417 13.7706C57.5548 13.7706 57.0034 13.0581 57.0034 12.3129C57.0034 11.0843 58.0986 10.4524 59.9087 10.4625V10.3819C59.9087 10.0597 59.7803 9.52595 58.9143 9.52595C58.4309 9.52595 57.9274 9.677 57.5951 9.88848L57.3534 9.08285C57.7159 8.8613 58.3503 8.65234 59.1257 8.65234C60.6942 8.65234 61.1474 9.64679 61.1474 10.7243" fill="white"/>
<path d="M62.8972 8.76304H64.1333V13.6623H62.8972V8.76304ZM63.5089 8.05811C63.0986 8.05811 62.8267 7.756 62.8267 7.39346C62.8267 7.01079 63.1061 6.71875 63.5215 6.71875C63.942 6.71875 64.2038 7.01079 64.2139 7.39346C64.2139 7.756 63.942 8.05811 63.5215 8.05811" fill="white"/>
<path d="M65.9131 13.6628H67.1517V6.50781H65.9131V13.6628Z" fill="white"/>
<path d="M71.5372 11.2656C70.661 11.2555 69.8252 11.4368 69.8252 12.182C69.8252 12.6654 70.1374 12.8869 70.5301 12.8869C71.0336 12.8869 71.3861 12.5647 71.5069 12.2122C71.5372 12.1216 71.5372 12.031 71.5372 11.9403V11.2656ZM72.7431 12.4841C72.7431 12.9272 72.7632 13.3602 72.8236 13.6598H71.7083L71.6177 13.1186H71.5875C71.2955 13.4987 70.7819 13.7706 70.1374 13.7706C69.153 13.7706 68.5991 13.0581 68.5991 12.3129C68.5991 11.0843 69.6968 10.4524 71.5069 10.4625V10.3819C71.5069 10.0597 71.376 9.52595 70.51 9.52595C70.0266 9.52595 69.5231 9.677 69.1933 9.88848L68.9516 9.08285C69.3141 8.8613 69.946 8.65234 70.7215 8.65234C72.2899 8.65234 72.7431 9.64679 72.7431 10.7243" fill="white"/>
<path d="M75.7316 11.6387C75.7316 11.7394 75.7416 11.8401 75.7618 11.9307C75.8927 12.4342 76.3257 12.7968 76.8569 12.7968C77.6324 12.7968 78.1057 12.1825 78.1057 11.188C78.1057 10.322 77.6928 9.61704 76.867 9.61704C76.3635 9.61704 75.9028 9.97957 75.7719 10.5234C75.7517 10.614 75.7316 10.7248 75.7316 10.8456V11.6387ZM74.4929 6.50781H75.7316V9.43577H75.7517C76.0538 8.96247 76.585 8.6528 77.3202 8.6528C78.5185 8.6528 79.372 9.64725 79.3619 11.1377C79.3619 12.8975 78.2466 13.7736 77.1389 13.7736C76.5045 13.7736 75.9431 13.5319 75.5906 12.9277H75.5704L75.51 13.6628H74.4526C74.4728 13.3305 74.4929 12.7867 74.4929 12.2932" fill="white"/>
<path d="M80.8193 13.6628H82.0555V6.50781H80.8193V13.6628Z" fill="white"/>
<path d="M86.8745 10.6941C86.8846 10.2409 86.6832 9.49574 85.8599 9.49574C85.0946 9.49574 84.7723 10.1906 84.722 10.6941H86.8745ZM84.722 11.5576C84.7522 12.4438 85.4471 12.8265 86.2326 12.8265C86.804 12.8265 87.2069 12.7359 87.5895 12.605L87.7708 13.4484C87.3478 13.6321 86.7638 13.7605 86.0614 13.7605C84.4702 13.7605 83.5337 12.7862 83.5337 11.2883C83.5337 9.92876 84.3595 8.65234 85.9304 8.65234C87.519 8.65234 88.0427 9.95897 88.0427 11.0365C88.0427 11.2681 88.0226 11.4494 88.0024 11.5576" fill="white"/>
<path d="M94.1878 12.8769C94.8902 12.8769 95.3837 12.1921 95.3837 11.1976C95.3837 10.4323 95.0413 9.54609 94.1979 9.54609C93.3218 9.54609 92.9693 10.4021 92.9693 11.2178C92.9693 12.1619 93.4426 12.8769 94.1752 12.8769H94.1878ZM94.1475 13.7731C92.7679 13.7731 91.6929 12.8265 91.6929 11.248C91.6929 9.63672 92.7477 8.65234 94.2281 8.65234C95.6858 8.65234 96.6626 9.677 96.6626 11.1674C96.6626 12.9675 95.3937 13.7731 94.1576 13.7731" fill="white"/>
<path d="M98.1183 10.2208C98.1183 9.65686 98.1007 9.18356 98.0806 8.7606H99.1556L99.216 9.49574H99.2462C99.4678 9.11306 100.001 8.65234 100.817 8.65234C101.671 8.65234 102.557 9.2037 102.557 10.7545V13.6598H101.318V10.8955C101.318 10.1906 101.056 9.65686 100.384 9.65686C99.8907 9.65686 99.5483 10.0093 99.4174 10.3819C99.3771 10.4826 99.357 10.6337 99.357 10.7747V13.6598H98.1183" fill="white"/>
<path d="M108.259 7.50488V8.76116H109.435V9.68764H108.259V11.8402C108.259 12.4444 108.42 12.7465 108.891 12.7465C109.113 12.7465 109.233 12.7364 109.374 12.6962L109.395 13.6302C109.213 13.7032 108.881 13.7611 108.498 13.7611C108.038 13.7611 107.665 13.61 107.433 13.3608C107.161 13.0788 107.041 12.6257 107.041 11.9812V9.68764H106.346V8.76116H107.041V7.84728" fill="white"/>
<path d="M110.812 6.50781H112.05V9.4257H112.07C112.221 9.19408 112.433 9.00275 112.685 8.87183C112.936 8.73336 113.226 8.6528 113.538 8.6528C114.374 8.6528 115.248 9.20415 115.248 10.7751V13.6628H114.011V10.906C114.011 10.2011 113.75 9.65732 113.065 9.65732C112.584 9.65732 112.242 9.97957 112.101 10.3522C112.06 10.463 112.05 10.5939 112.05 10.7248V13.6628H110.812" fill="white"/>
<path d="M120.036 10.6941C120.046 10.2409 119.845 9.49574 119.019 9.49574C118.254 9.49574 117.934 10.1906 117.884 10.6941H120.036ZM117.884 11.5576C117.914 12.4438 118.606 12.8265 119.392 12.8265C119.966 12.8265 120.368 12.7359 120.749 12.605L120.932 13.4484C120.509 13.6321 119.925 13.7605 119.22 13.7605C117.632 13.7605 116.695 12.7862 116.695 11.2883C116.695 9.92876 117.521 8.65234 119.09 8.65234C120.678 8.65234 121.202 9.95897 121.202 11.0365C121.202 11.2681 121.182 11.4494 121.162 11.5576" fill="white"/>
<path d="M31.3009 20.239C31.2681 16.8831 34.0475 15.2491 34.1759 15.1736C32.6025 12.8776 30.1629 12.5654 29.3044 12.5402C27.2576 12.3262 25.2712 13.7688 24.2289 13.7688C23.164 13.7688 21.5553 12.5629 19.8257 12.5981C17.5951 12.6334 15.5105 13.9249 14.3675 15.9264C12.0111 20.0124 13.7683 26.0144 16.0291 29.3174C17.1621 30.9337 18.4813 32.7414 20.2109 32.6759C21.9027 32.6054 22.5346 31.5984 24.5764 31.5984C26.6005 31.5984 27.1947 32.6759 28.9595 32.6356C30.7747 32.6054 31.9177 31.0118 33.0078 29.3779C34.3169 27.5249 34.8406 25.6997 34.8607 25.6065C34.8179 25.5914 31.3361 24.2621 31.3009 20.239Z" fill="white"/>
<path d="M27.9679 10.3701C28.8767 9.23217 29.5036 7.68133 29.3274 6.11035C28.0107 6.17077 26.3642 7.02172 25.415 8.1345C24.5767 9.11636 23.8239 10.7251 24.0203 12.2357C25.5006 12.3464 27.0187 11.4904 27.9679 10.3701Z" fill="white"/>
<path d="M51.7191 26.6456L50.5509 23.0379C50.4275 22.6703 50.1959 21.8017 49.8535 20.4372H49.8132C49.6773 21.0238 49.4557 21.8924 49.1561 23.0379L48.0081 26.6456H51.7191ZM55.7573 32.4083H53.3983L52.1068 28.35H47.6204L46.3893 32.4083H44.0933L48.5444 18.5918H51.2885" fill="white"/>
<path d="M64.9413 27.3862C64.9413 26.4144 64.7223 25.6163 64.2842 24.9869C63.8059 24.3324 63.1639 24.0025 62.3583 24.0025C61.812 24.0025 61.3135 24.1863 60.8729 24.5463C60.4298 24.9114 60.1378 25.3847 59.9993 25.9738C59.9313 26.2457 59.8986 26.4698 59.8986 26.646V28.3076C59.8986 29.0327 60.1201 29.6445 60.5632 30.143C61.0088 30.644 61.5854 30.8907 62.2953 30.8907C63.1312 30.8907 63.7807 30.5709 64.2414 29.9264C64.7097 29.2845 64.9413 28.4385 64.9413 27.3862ZM67.1971 27.3031C67.1971 28.9975 66.7389 30.3393 65.8225 31.3212C65.0017 32.1973 63.9821 32.6329 62.7686 32.6329C61.4545 32.6329 60.5129 32.1596 59.9389 31.218H59.8986V36.4672H57.6831V25.7246C57.6831 24.6596 57.6579 23.567 57.6025 22.4442H59.5486L59.672 24.0252H59.7148C60.4525 22.8344 61.5728 22.2402 63.0758 22.2402C64.249 22.2402 65.2334 22.706 66.0163 23.635C66.8018 24.5665 67.1971 25.7875 67.1971 27.3031Z" fill="white"/>
<path d="M76.3988 27.3862C76.3988 26.4144 76.1797 25.6163 75.7417 24.9869C75.2633 24.3324 74.6213 24.0025 73.8157 24.0025C73.2694 24.0025 72.7734 24.1863 72.3303 24.5463C71.8847 24.9114 71.5977 25.3847 71.4618 25.9738C71.3913 26.2457 71.3585 26.4698 71.3585 26.646V28.3076C71.3585 29.0327 71.5776 29.6445 72.0207 30.143C72.4663 30.644 73.0428 30.8907 73.7553 30.8907C74.5886 30.8907 75.2382 30.5709 75.7014 29.9264C76.1646 29.2845 76.3988 28.4385 76.3988 27.3862ZM78.652 27.3031C78.652 28.9975 78.1963 30.3393 77.2799 31.3212C76.4592 32.1973 75.4421 32.6329 74.2261 32.6329C72.9144 32.6329 71.9728 32.1596 71.3963 31.218H71.3585V36.4672H69.1431V25.7246C69.1431 24.6596 69.1154 23.567 69.0625 22.4442H71.0086L71.132 24.0252H71.1748C71.9099 22.8344 73.0302 22.2402 74.5332 22.2402C75.7089 22.2402 76.6883 22.706 77.4763 23.635C78.2618 24.5665 78.652 25.7875 78.652 27.3031Z" fill="white"/>
<path d="M91.467 28.5342C91.467 29.7074 91.0592 30.664 90.2384 31.4042C89.3371 32.2098 88.0859 32.6127 86.4771 32.6127C84.9892 32.6127 83.7959 32.3257 82.8921 31.7516L83.4057 29.9088C84.38 30.4954 85.4449 30.7874 86.6081 30.7874C87.4414 30.7874 88.0909 30.6011 88.5567 30.226C89.0199 29.8483 89.2515 29.3448 89.2515 28.7154C89.2515 28.1565 89.0627 27.6807 88.68 27.298C88.2974 26.9153 87.6604 26.5604 86.7717 26.2306C84.3523 25.3267 83.1438 24.005 83.1438 22.2679C83.1438 21.1324 83.5668 20.2009 84.4152 19.4759C85.2611 18.7508 86.389 18.3857 87.7964 18.3857C89.0552 18.3857 90.1 18.6073 90.9333 19.0428L90.3794 20.8479C89.6015 20.425 88.7203 20.211 87.7359 20.211C86.9555 20.211 86.3487 20.4023 85.9132 20.785C85.5456 21.1274 85.3593 21.5453 85.3593 22.0363C85.3593 22.5826 85.5683 23.0332 85.9938 23.3882C86.3613 23.7155 87.031 24.0705 88.0028 24.4557C89.1911 24.934 90.0647 25.4929 90.6261 26.1349C91.185 26.7769 91.467 27.5775 91.467 28.5342Z" fill="white"/>
<path d="M98.7827 24.1063H96.3432V28.9426C96.3432 30.1737 96.7737 30.788 97.6372 30.788C98.03 30.788 98.3598 30.7552 98.6191 30.6873L98.6795 32.3665C98.2465 32.5327 97.67 32.6132 96.96 32.6132C96.0864 32.6132 95.4016 32.3464 94.9082 31.8152C94.4172 31.2814 94.1705 30.3852 94.1705 29.1289V24.1063H92.7153V22.4447H94.1705V20.6219L96.3432 19.9648V22.4447H98.7827" fill="white"/>
<path d="M107.496 27.4164C107.496 26.4975 107.297 25.712 106.9 25.0524C106.439 24.2568 105.774 23.859 104.913 23.859C104.024 23.859 103.347 24.2568 102.884 25.0524C102.486 25.712 102.292 26.5126 102.292 27.4592C102.292 28.3781 102.486 29.1636 102.884 29.8207C103.362 30.6163 104.032 31.014 104.896 31.014C105.739 31.014 106.404 30.6112 106.882 29.8006C107.292 29.1309 107.496 28.3353 107.496 27.4164ZM109.792 27.3459C109.792 28.8766 109.357 30.1329 108.481 31.1173C107.564 32.1293 106.348 32.6329 104.833 32.6329C103.367 32.6329 102.204 32.147 101.336 31.1777C100.47 30.2084 100.037 28.9849 100.037 27.5096C100.037 25.9638 100.482 24.6999 101.378 23.7181C102.272 22.7312 103.478 22.2402 104.994 22.2402C106.456 22.2402 107.635 22.7261 108.521 23.6954C109.369 24.642 109.792 25.8555 109.792 27.3459Z" fill="white"/>
<path d="M116.987 24.3928C116.768 24.3525 116.537 24.3324 116.29 24.3324C115.512 24.3324 114.908 24.6269 114.485 25.2135C114.117 25.7347 113.934 26.3892 113.934 27.1798V32.4088H111.721L111.738 25.5836C111.738 24.4331 111.711 23.3883 111.658 22.4442H113.586L113.667 24.3525H113.725C113.959 23.6979 114.329 23.1692 114.832 22.774C115.326 22.419 115.86 22.2402 116.434 22.2402C116.638 22.2402 116.824 22.2553 116.987 22.2805" fill="white"/>
<path d="M124.774 26.3813C124.789 25.7267 124.646 25.1578 124.346 24.6794C123.964 24.0651 123.372 23.7555 122.582 23.7555C121.859 23.7555 121.27 24.0576 120.819 24.6593C120.452 25.1376 120.23 25.7116 120.167 26.3813H124.774ZM126.884 26.9553C126.884 27.3531 126.859 27.6854 126.806 27.9598H120.167C120.19 28.9442 120.512 29.697 121.129 30.2156C121.688 30.6814 122.413 30.9105 123.302 30.9105C124.283 30.9105 125.18 30.7544 125.988 30.4397L126.335 31.9779C125.391 32.3858 124.278 32.5947 122.992 32.5947C121.449 32.5947 120.235 32.139 119.354 31.2277C118.475 30.3213 118.032 29.1003 118.032 27.5696C118.032 26.0666 118.44 24.8154 119.263 23.8184C120.122 22.7509 121.285 22.2197 122.745 22.2197C124.18 22.2197 125.27 22.7509 126.008 23.8184C126.595 24.6643 126.884 25.7116 126.884 26.9553Z" fill="white"/>
</svg>
