<svg width="152" height="13" viewBox="0 0 152 13" fill="none" xmlns="http://www.w3.org/2000/svg">
<path d="M57.1237 6.80514C56.7253 7.18347 56.3722 7.60413 56.071 8.05915C54.9682 9.48598 53.8524 10.9002 52.7736 12.3418C52.6551 12.5287 52.4849 12.6798 52.2823 12.7777C52.0797 12.8757 51.8528 12.9167 51.6274 12.8961C50.7095 12.8602 49.7894 12.8644 48.8694 12.8961C48.3887 12.9129 48.2168 12.719 48.1842 12.287C48.0059 10.3101 47.8145 8.33314 47.6252 6.35622C47.5426 5.50054 47.4621 4.64696 47.3708 3.79128C47.3294 3.39506 47.1685 3.17166 46.6747 3.17587C43.4883 3.19695 40.2996 3.18641 37.1045 3.19063C37.0028 3.20171 36.9024 3.22146 36.8043 3.24964C36.8195 3.61004 37.1632 3.70277 37.3481 3.9072C37.5786 4.16433 37.9614 4.32872 37.7657 4.79661C37.6874 4.97786 37.8374 5.06005 38.0114 5.06638C38.2551 5.06638 38.5008 5.07902 38.7466 5.07902C40.7999 5.07902 42.8531 5.07902 44.9064 5.07902C45.6416 5.07902 45.6481 5.09799 45.4262 5.77242C45.2696 6.25295 45.0521 6.71661 44.926 7.20347C44.7998 7.69032 44.491 7.82521 43.9907 7.82099C41.4481 7.79992 38.9032 7.81046 36.3584 7.82099C36.1191 7.82099 35.8777 7.84207 35.4884 7.85893C36.0691 8.39636 36.589 8.88111 35.9691 9.741H45.0173C44.6628 10.7737 44.3648 11.6673 44.0473 12.5588C44.0247 12.6616 43.9633 12.7525 43.8752 12.8137C43.7871 12.8749 43.6786 12.902 43.5709 12.8897C43.4491 12.8897 43.3251 12.8897 43.2033 12.8897C39.9538 12.8897 36.7042 12.8897 33.4547 12.8897C31.7277 12.8897 30.8577 11.7559 31.3993 10.1815C32.3969 7.28145 33.4119 4.38914 34.4443 1.50456C34.7989 0.509776 35.4906 0.0292466 36.5998 0.0292466C41.3524 0.016601 46.1027 0.0292471 50.853 0.0166016C51.3098 0.0166016 51.4838 0.134626 51.5055 0.608833C51.6078 2.50566 51.7579 4.39195 51.8949 6.28245C51.9275 6.75455 51.9754 7.22454 52.0167 7.69875C52.3125 7.75776 52.3865 7.5175 52.5017 7.37629C53.5501 6.09769 54.5912 4.81487 55.6251 3.52784C56.1102 2.92507 56.1058 2.91032 55.499 2.39185C55.2815 2.20217 55.0052 2.05885 54.8617 1.64155H56.0667C57.2934 1.64155 58.518 1.64155 59.7447 1.64155C60.4864 1.64155 60.4951 1.64155 60.6147 2.44665C60.867 4.02734 61.1084 5.60803 61.3542 7.19504L61.413 7.54279C61.7131 7.59548 61.7675 7.34257 61.8828 7.19082C63.1458 5.51459 64.4051 3.83484 65.6609 2.15158C66.1198 1.53617 66.1155 1.53196 65.5782 1.02403C65.2759 0.741611 64.9714 0.463408 64.6451 0.159916C65.4151 -0.0171214 70.6744 -0.036093 71.6662 0.136729C71.3856 0.518202 71.1311 0.876497 70.8636 1.22214C68.0165 4.90409 65.1584 8.57761 62.3287 12.2701C61.9828 12.719 61.6413 12.9445 61.0454 12.9024C60.221 12.8497 59.3902 12.9024 58.5636 12.8876C57.7371 12.8729 57.7763 12.8771 57.6936 12.131C57.537 10.5398 57.3695 8.94855 57.2042 7.35732C57.2325 7.20979 57.1846 7.06858 57.1237 6.80514Z" fill="#D7B56D"/>
<path d="M85.8259 2.4888C85.9803 1.53195 85.5779 0.79219 84.6688 0.395963C84.1061 0.158357 83.4966 0.0432451 82.883 0.0587482C79.7618 0.0692862 76.6362 0.0587482 73.5107 0.0587482C72.5558 0.0587482 72.6276 -0.103536 72.2535 0.954472C70.9811 4.57109 69.6913 8.1835 68.421 11.8043C68.3079 12.131 68.0861 12.4366 68.1731 12.8139C68.4417 12.8907 68.7238 12.913 69.0018 12.8792C72.4819 12.8792 75.9816 12.8476 79.4747 12.8939C81.1082 12.9192 82.3697 12.3165 83.4094 11.1468C84.871 9.50074 85.082 7.51539 83.9358 5.82721C84.944 4.95872 85.6117 3.77941 85.8259 2.4888ZM79.54 9.41854C79.3198 9.58051 79.0547 9.67518 78.7787 9.69042C77.1039 9.69042 75.4334 9.69042 73.5694 9.69042C74.1154 8.84739 73.8978 8.29309 73.1627 7.90108C73.4346 7.64395 73.6542 7.71561 73.8522 7.71561C75.5922 7.71561 77.3323 7.71561 79.0723 7.71561C79.5073 7.71561 79.9597 7.69454 80.1294 8.20247C80.2425 8.55232 79.9163 9.16563 79.54 9.41854ZM80.6384 4.64697C80.5298 4.79237 80.3895 4.91286 80.2275 4.99991C80.0655 5.08695 79.8857 5.13842 79.7009 5.15068C78.2502 5.18229 76.795 5.16543 75.3725 5.16543C75.1877 4.74392 75.6836 4.42356 75.3725 4.09688C75.155 3.86083 74.8375 3.70277 74.6047 3.296C76.4231 3.1728 78.2469 3.14254 80.0685 3.20537C80.423 3.20537 80.8298 3.22645 80.9559 3.67537C81.0582 4.06106 80.8689 4.36034 80.6384 4.64697Z" fill="#D7B66C"/>
<path d="M31.5798 0.332895C30.9794 0.0420485 30.3421 0.0167575 29.7005 0.0167575C25.7448 0.0167575 21.7912 0.0167575 17.8399 0.0167575C17.6441 0.0167575 17.4179 -0.0738705 17.2048 0.166394C17.5745 0.558405 18.0748 0.855572 18.3793 1.34875C16.3217 1.71125 14.4033 2.32034 12.4631 2.82406C10.5556 3.33199 8.60891 3.65656 6.67092 4.00009C8.48928 4.29305 10.3468 4.21085 12.0825 4.96115C8.07602 6.16669 4.00864 7.05398 0 8.16679C1.10711 8.25742 2.20334 8.28903 3.2974 8.32697C6.02058 8.42392 8.73506 8.42392 11.4713 8.46607C11.7867 8.46607 12.1238 8.42392 12.4131 8.70633C11.9237 9.15525 11.3256 9.29435 10.7644 9.50722C10.2032 9.72009 9.65294 9.84865 9.11352 10.051C8.57411 10.2533 7.99988 10.3144 7.40174 10.7296C10.188 10.2638 12.8394 10.4156 15.5343 10.3987C15.5503 10.4998 15.5562 10.6022 15.5517 10.7043C15.3973 11.1532 15.2428 11.6022 15.0775 12.049C14.7339 12.9742 14.7339 12.9784 15.7431 12.9826C19.0797 12.9826 22.4206 12.932 25.7593 12.9995C26.7437 13.0138 27.7083 12.7304 28.5188 12.1887C29.3293 11.647 29.9453 10.874 30.2812 9.97721C30.4987 9.38919 30.7054 8.80118 30.9098 8.20894C31.5319 6.40907 32.1866 4.62605 32.7608 2.8072C33.1132 1.70915 32.6455 0.855577 31.5798 0.332895ZM23.2906 3.97902C23.5668 4.0022 23.693 4.18977 23.7756 4.44479C24.0192 5.16137 23.7909 5.54495 23.0318 5.61029C22.7459 5.66717 22.4484 5.61749 22.1987 5.47119C22.501 5.08971 22.1987 4.34785 23.0687 4.43004C23.0861 4.43004 23.1144 4.39632 23.1296 4.37103C23.1862 4.24036 22.8229 3.93054 23.2906 3.97902ZM22.4467 7.35116C21.4997 7.28964 20.5709 7.06928 19.7017 6.69991C19.4989 6.62914 19.3235 6.49963 19.1993 6.32897C19.1258 6.18127 19.1073 6.01346 19.1469 5.85403C19.1865 5.6946 19.2819 5.55337 19.4168 5.45433C19.4791 5.41 19.5511 5.38001 19.6272 5.36666C19.7033 5.3533 19.7815 5.35691 19.8559 5.37723C19.9304 5.39754 19.999 5.43402 20.0567 5.4839C20.1144 5.53378 20.1596 5.59574 20.1889 5.66509C20.2775 5.83835 20.4042 5.99064 20.5602 6.11119C20.7162 6.23174 20.8976 6.3176 21.0916 6.3627C21.3939 6.43435 21.6919 6.49758 21.9616 6.27207C22.3966 5.89271 22.5946 6.10557 22.6729 6.56502C22.7272 6.53552 22.7555 6.52287 22.7816 6.50601C22.9665 6.38377 22.9665 6.02759 23.308 6.10768C23.368 6.12355 23.4213 6.15734 23.4604 6.20426C23.4994 6.25118 23.5222 6.30883 23.5255 6.36902C23.569 6.67883 23.5407 6.97811 23.2536 7.16569C23.013 7.31176 22.7294 7.37694 22.4467 7.35116ZM22.4793 8.65364C22.2346 8.83559 21.9265 8.918 21.6201 8.88337C20.9854 8.82794 20.3628 8.68016 19.7735 8.44499C19.0362 8.11832 18.9535 7.9181 19.2102 7.04134C19.9606 7.2521 20.7153 7.46286 21.4614 7.67362C21.7789 7.76424 21.7746 7.77899 21.9507 8.33118C22.0486 8.24899 22.0682 8.22791 22.09 8.21105C22.2553 8.09092 22.1313 7.75371 22.4423 7.76846C22.484 7.7792 22.5224 7.79929 22.5545 7.82712C22.5866 7.85496 22.6115 7.88973 22.6272 7.92863C22.712 8.17943 22.7338 8.45553 22.4793 8.64311V8.65364ZM21.668 5.20352C21.614 5.20114 21.5612 5.18675 21.5139 5.16145C21.4665 5.13615 21.4258 5.10062 21.3949 5.05762C21.364 5.01462 21.3437 4.96531 21.3356 4.91349C21.3275 4.86168 21.3318 4.80876 21.3483 4.75883C21.3568 4.65548 21.4043 4.55879 21.4817 4.48725C21.5592 4.41571 21.6611 4.37433 21.768 4.37103C21.8139 4.38084 21.857 4.40006 21.8946 4.42739C21.9321 4.45473 21.9631 4.48955 21.9856 4.52949C22.0081 4.56944 22.0214 4.61359 22.0248 4.65897C22.0282 4.70434 22.0215 4.74989 22.0051 4.79254C21.9551 4.96326 21.966 5.22882 21.668 5.19299V5.20352ZM18.5272 6.00019C18.3167 6.39949 17.9701 6.71595 17.5462 6.89592C17.1265 7.10667 16.698 7.31744 16.2934 7.57035C17.007 7.61545 17.718 7.45091 18.3336 7.09824C18.4468 7.82012 18.3773 8.55783 18.1313 9.24798C17.9138 9.82335 17.4679 10.1964 16.885 10.1163C15.2929 9.90555 13.6942 9.80649 12.0346 9.66318L14.151 8.11832C11.2233 7.82537 8.45012 7.85697 5.68997 7.41438L15.3451 4.92111C15.3233 4.85999 15.3037 4.80098 15.2863 4.73775L11.1537 3.94319C11.1537 3.67552 11.3712 3.67974 11.5213 3.63759C13.4571 3.08329 15.3908 2.52057 17.3374 2.0021C18.5881 1.66699 19.8736 1.70915 21.1481 1.83771C21.5171 1.88111 21.8549 2.05966 22.0923 2.33673C22.3297 2.6138 22.4487 2.96839 22.4249 3.32777C22.3771 3.70714 22.3771 4.18345 21.7158 4.14973C21.3178 4.12444 21.1808 4.46165 21.0633 4.78201C20.9459 5.10236 21.1438 5.26043 21.4048 5.40164C21.5679 5.48805 21.7354 5.64823 21.6071 5.82316C21.4788 5.99809 21.2656 5.94961 21.0894 5.90113C20.6392 5.77257 20.4956 5.40586 20.4565 5.00963C20.3782 4.23615 20.4282 3.48163 21.0133 2.7229C20.8733 2.72128 20.7355 2.75699 20.6151 2.82613C20.4946 2.89527 20.3961 2.99517 20.3303 3.11491C20.2416 3.31663 20.0951 3.48952 19.9081 3.61314C19.7212 3.73676 19.5016 3.80594 19.2754 3.81252C18.823 3.85678 18.388 3.98956 17.9704 3.70292C17.9595 3.70292 17.9247 3.73243 17.8964 3.74929C17.9095 4.03382 18.2292 4.15395 18.301 4.39632C18.164 4.58811 17.8812 4.55439 17.7616 4.79254C17.916 4.88106 18.0683 4.9738 18.2227 5.05389C18.7969 5.35949 18.8078 5.41218 18.5272 5.98966V6.00019ZM21.8964 9.77699C21.5745 10.3376 20.9698 10.2659 20.5391 10.3692C20.0792 10.3691 19.6266 10.2567 19.2232 10.0425C19.125 9.99869 19.0449 9.92418 18.9956 9.83094C18.9463 9.7377 18.9307 9.63113 18.9513 9.52829C18.9545 9.40883 18.9961 9.29331 19.0701 9.19776C19.1442 9.1022 19.2471 9.03136 19.3646 8.99507C19.7996 8.84754 21.035 9.17633 21.3221 9.57888C21.5397 9.89291 21.5157 9.5578 21.5397 9.51354C21.6223 9.3639 21.7332 9.26274 21.892 9.37444C22.0508 9.48614 21.9725 9.63578 21.8964 9.76645V9.77699ZM28.3193 4.04856C28.24 4.67146 27.9457 5.25006 27.4841 5.69038C27.2927 5.88006 27.2101 6.01494 27.4036 6.28261C28.3411 7.56824 26.8142 10.1332 25.0828 10.1985C24.1671 10.2301 23.2514 10.1985 22.3357 10.1985C22.3714 9.70763 22.5476 9.23612 22.8447 8.837C23.3798 8.05298 24.041 7.23945 23.9518 6.17723C23.9546 5.97163 24.0091 5.7698 24.1106 5.58922C24.4912 4.70614 24.2781 4.08229 23.4581 3.57436C23.2935 3.47878 23.1501 3.3527 23.0359 3.20334C22.9217 3.05399 22.839 2.88428 22.7925 2.70393C22.9948 2.49317 23.2275 2.5564 23.4189 2.5564C24.6108 2.5564 25.8115 2.53321 26.9969 2.5564C28.004 2.58169 28.4281 3.07697 28.3193 4.03803V4.04856Z" fill="#D6B56E"/>
<path d="M134.71 0.395899C134.179 0.16456 133.6 0.0528758 133.018 0.0692257C129.677 0.0797636 126.336 0.0692257 122.995 0.0692257C122.025 0.0692257 122.108 -0.090951 121.734 0.96495C120.429 4.67149 119.124 8.37663 117.819 12.0804C117.732 12.3227 117.564 12.5525 117.699 12.8897C118.967 12.8897 120.25 12.8897 121.536 12.8897C121.671 12.8989 121.805 12.8591 121.911 12.7781C122.018 12.6971 122.089 12.5806 122.112 12.4513C122.378 11.661 122.663 10.8769 122.939 10.0908C123.43 8.67661 123.428 8.69136 124.966 8.73351C125.13 8.71762 125.295 8.75302 125.437 8.83454C125.579 8.91605 125.691 9.03942 125.756 9.18664C126.306 10.2404 126.897 11.2942 127.454 12.348C127.526 12.5257 127.656 12.6758 127.824 12.7754C127.992 12.8751 128.189 12.9189 128.385 12.9002C129.69 12.8686 131.019 12.9002 132.337 12.8876C132.476 12.8876 132.653 12.9297 132.718 12.6768C131.913 11.4123 131.091 10.1477 130.275 8.88315C130.338 8.82289 130.404 8.76724 130.475 8.71665C130.643 8.64326 130.827 8.61278 131.01 8.62813C131.751 8.58973 132.468 8.36355 133.09 7.97221C133.712 7.58088 134.216 7.03813 134.554 6.39831C135.219 5.23492 135.606 3.93032 135.909 2.62783C136.15 1.61408 135.68 0.827954 134.71 0.395899ZM130.578 5.37402C130.543 5.48916 130.467 5.58872 130.364 5.65506C130.261 5.72141 130.137 5.75027 130.014 5.73652C128.239 5.73652 126.465 5.73652 124.722 5.73652C124.664 5.63536 124.603 5.5637 124.618 5.54263C125.318 4.48884 124.344 4.02727 123.796 3.41818C124.392 3.22639 130.119 3.18213 131.285 3.36549C131.041 4.02727 130.813 4.69538 130.571 5.36348L130.578 5.37402Z" fill="#D7B66C"/>
<path d="M101.332 0.235741C100.84 0.0651697 100.319 -0.0107206 99.7982 0.0123375H95.9396C94.6194 0.0123375 93.3013 0.0123375 91.9876 0.0123375C89.7886 0.0334134 88.2399 1.03241 87.4939 3.03673C86.6238 5.35507 85.8408 7.69238 85.0534 10.0318C84.6902 11.1067 85.1644 12.0467 86.228 12.5209C86.7069 12.7278 87.2262 12.8321 87.7505 12.8265C90.4781 12.8265 93.2034 12.8265 95.9266 12.8265C96.5878 12.8345 97.2424 12.6985 97.8421 12.4286C98.4418 12.1586 98.9713 11.7616 99.3915 11.2668C99.8373 10.7365 100.173 10.1274 100.379 9.4733C100.949 7.84483 101.517 6.21567 102.084 4.5858C102.302 3.99568 102.506 3.40555 102.674 2.807C102.998 1.62886 102.502 0.69098 101.332 0.235741ZM97.8689 3.91559C97.2643 5.65646 96.64 7.38889 96.0288 9.12765C95.9244 9.42693 95.8113 9.66719 95.4176 9.66298C93.5253 9.66298 91.6308 9.66298 89.5906 9.66298C90.0931 8.2256 90.5281 6.93365 91.0001 5.65856C91.5047 4.26966 91.4525 4.65535 90.5216 3.71537C90.4019 3.59524 90.1909 3.54676 90.1909 3.32968C90.3128 3.13789 90.5107 3.19479 90.6803 3.19479C92.8815 3.18636 95.0834 3.18636 97.286 3.19479C98.0799 3.18847 98.1082 3.2222 97.8689 3.91559Z" fill="#D7B66D"/>
<path d="M150.606 0.301428C150.238 0.154132 149.845 0.0734205 149.447 0.0632762C146.047 0.0632762 142.65 0.0632723 139.25 0.0527344C138.798 0.0527344 138.582 0.212914 138.471 0.60914C138.395 0.893664 138.254 1.16554 138.162 1.45217C137.101 4.44916 136.031 7.44615 134.989 10.4516C134.719 11.2272 134.378 11.9901 134.25 12.8352C134.382 12.8603 134.517 12.8779 134.652 12.8879C138.173 12.8879 141.693 12.9195 145.214 12.8879C147.276 12.8647 148.838 11.674 149.529 9.7392C149.921 8.64536 150.297 7.55153 150.684 6.45558C151.071 5.35964 151.476 4.27634 151.841 3.17618C152.279 1.85472 151.796 0.741913 150.606 0.301428ZM146.808 4.77162C146.324 6.17668 145.828 7.57752 145.321 8.97415C145.06 9.70548 145.049 9.70759 144.309 9.71602C143.022 9.71602 141.74 9.71602 140.453 9.71602C140.228 9.75145 139.997 9.7105 139.8 9.6001C140.065 8.4534 140.446 7.33457 140.936 6.25958C141.416 5.1552 141.56 4.25737 140.353 3.55344C140.309 3.53026 140.292 3.45648 140.259 3.4038C140.849 3.21622 146.054 3.16142 147.239 3.33846C147.226 3.8506 146.978 4.30163 146.813 4.77162H146.808Z" fill="#D8B56D"/>
<path d="M108.786 7.12122C110.189 7.12122 111.35 7.10225 112.512 7.12122C113.042 7.13386 113.345 7.00108 113.501 6.46154C113.771 5.51945 114.121 4.60054 114.443 3.6732C114.543 3.38868 114.478 3.19057 114.143 3.18846C112.562 3.18846 110.983 3.18846 109.388 3.18846C109.412 3.32756 109.388 3.39922 109.432 3.43083C110.197 4.14109 110.202 4.1432 109.623 4.98202C107.977 7.37624 106.313 9.75991 104.688 12.1689C104.368 12.6431 104.036 12.8686 103.435 12.8412C102.348 12.7885 101.232 12.8307 100.129 12.8201C99.8964 12.8201 99.6463 12.8918 99.3613 12.6979C99.6919 12.2047 100.014 11.7137 100.349 11.2331C102.363 8.36399 104.378 5.49697 106.395 2.63206C107.605 0.918588 109.275 0.018654 111.429 0.0102236C113.053 0.0102236 114.676 0.0102236 116.299 0.0102236C116.882 -0.019109 117.463 0.0848495 117.997 0.31371C118.939 0.764734 119.302 1.35697 119.25 2.37494C119.219 2.72934 119.136 3.07768 119.004 3.40975C117.982 6.29715 116.96 9.18595 115.94 12.0762C115.674 12.8201 115.67 12.8222 114.852 12.8243C113.837 12.8243 112.826 12.8243 111.82 12.8243C111.728 12.8404 111.633 12.83 111.547 12.7944C111.461 12.7588 111.387 12.6997 111.335 12.6241C111.535 12.0488 111.755 11.4102 111.975 10.7737C112.044 10.5756 112.116 10.3817 112.192 10.1835C112.29 9.89269 112.192 9.67351 111.864 9.72409C111.024 9.85897 110.576 9.39952 110.156 8.80518C109.769 8.2846 109.334 7.79775 108.786 7.12122Z" fill="#D7B66C"/>
</svg>
