<svg width="389" height="120" viewBox="0 0 389 120" fill="none" xmlns="http://www.w3.org/2000/svg">
<path d="M52.9277 30.9789H66.1735C66.5721 30.3373 66.6874 29.5042 66.3763 28.7182L52.9312 12.9141V30.9789H52.9277Z" fill="#EF9645"/>
<path d="M41.8361 74.3682C41.6369 73.1959 41.4026 72.0875 41.116 71.0999C38.9486 63.6328 37.1307 60.472 37.9068 52.6455C38.9206 47.3248 38.8612 36.6465 53.5787 38.3092C57.4661 38.7492 63.5174 41.423 66.9818 41.3659C68.964 41.3323 70.4078 37.4795 70.5371 36.1964C70.7154 34.4295 67.5132 31.4266 66.1743 30.9765C64.8354 30.5264 59.1406 28.8569 56.8019 28.2086C53.1697 27.1976 53.3585 22.4815 53.1278 20.802C53.0194 20.0126 53.4214 19.2333 54.1555 18.8168C54.8897 18.4003 55.4665 18.7899 56.1796 19.2367L59.2735 21.4133C61.0109 22.8443 56.2181 25.5785 57.5151 26.0353C57.5151 26.0353 63.6503 28.2489 66.2792 28.7091C67.7195 28.9611 72.6906 23.5732 72.9807 20.4124C73.208 17.9267 61.1018 6.69748 52.4705 2.33748C49.4361 0.80577 47.6567 -0.08437 45.6571 0.00632346C43.2694 0.113812 42.5178 1.02075 39.5464 3.46611C26.0978 14.5206 13.0443 38.4268 11.1285 43.7172C3.27683 65.4198 2.04979 76.8539 1.77012 83.3133C1.59882 85.2951 1.50444 87.2669 1.50444 89.2185C1.73167 89.2185 -1.99142 106.014 1.50444 109.373C5.00029 112.732 20.1234 112.732 20.1234 112.732C55.0819 126.131 120 122.634 120 88.4358C120 47.5499 54.2324 52.9747 41.8361 74.3682Z" fill="#FFDC5D"/>
<path d="M69.1954 107.289C58.1485 106.174 49.5208 100.971 49.0348 100.672C47.4093 99.6741 46.9338 97.6049 47.9686 96.0396C49.0034 94.4743 51.1603 94.0142 52.7929 95.0051C52.9327 95.089 66.7868 103.376 80.2214 99.9327C87.6501 98.0315 93.7398 92.8284 98.3194 84.4779C99.2214 82.832 101.347 82.2072 103.042 83.0705C104.748 83.9337 105.406 85.966 104.507 87.6085C98.9662 97.7057 91.3836 104.044 81.9693 106.439C77.575 107.554 73.2227 107.695 69.1954 107.289Z" fill="#EF9645"/>
<path d="M336.072 30.9789H322.826C322.428 30.3373 322.313 29.5042 322.624 28.7182L336.069 12.9141V30.9789H336.072Z" fill="#EF9645"/>
<path d="M347.164 74.3682C347.363 73.1959 347.597 72.0875 347.884 71.0999C350.051 63.6328 351.869 60.472 351.093 52.6455C350.079 47.3248 350.139 36.6465 335.421 38.3092C331.534 38.7492 325.483 41.423 322.018 41.3659C320.036 41.3323 318.592 37.4795 318.463 36.1964C318.285 34.4295 321.487 31.4266 322.826 30.9765C324.165 30.5264 329.859 28.8569 332.198 28.2086C335.83 27.1976 335.642 22.4815 335.872 20.802C335.981 20.0126 335.579 19.2333 334.844 18.8168C334.11 18.4003 333.534 18.7899 332.82 19.2367L329.727 21.4133C327.989 22.8443 332.782 25.5785 331.485 26.0353C331.485 26.0353 325.35 28.2489 322.721 28.7091C321.281 28.9611 316.309 23.5732 316.019 20.4124C315.792 17.9267 327.898 6.69748 336.529 2.33748C339.564 0.80577 341.343 -0.08437 343.343 0.00632346C345.731 0.113812 346.482 1.02075 349.454 3.46611C362.902 14.5206 375.956 38.4268 377.871 43.7172C385.723 65.4198 386.95 76.8539 387.23 83.3133C387.401 85.2951 387.496 87.2669 387.496 89.2185C387.268 89.2185 390.991 106.014 387.496 109.373C384 112.732 368.877 112.732 368.877 112.732C333.918 126.131 269 122.634 269 88.4358C269 47.5499 334.768 52.9747 347.164 74.3682Z" fill="#FFDC5D"/>
<path d="M319.805 107.289C330.851 106.174 339.479 100.971 339.965 100.672C341.591 99.6741 342.066 97.6049 341.031 96.0396C339.997 94.4743 337.84 94.0142 336.207 95.0051C336.067 95.089 322.213 103.376 308.779 99.9327C301.35 98.0315 295.26 92.8284 290.681 84.4779C289.779 82.832 287.653 82.2072 285.958 83.0705C284.252 83.9337 283.594 85.966 284.493 87.6085C290.034 97.7057 297.616 104.044 307.031 106.439C311.425 107.554 315.777 107.695 319.805 107.289Z" fill="#EF9645"/>
<path d="M253 60C253 93.1367 226.137 120 193 120C159.863 120 133 93.1367 133 60C133 26.8633 159.863 0 193 0C226.137 0 253 26.8633 253 60Z" fill="#FFCC4D"/>
<path d="M199.669 43.3337C199.486 43.3337 199.306 43.3203 199.119 43.287C197.303 42.9837 196.076 41.267 196.379 39.4503C197.689 31.5703 204.946 16.667 222.999 16.667C224.843 16.667 226.333 18.1603 226.333 20.0003C226.333 21.8403 224.843 23.3337 222.999 23.3337C206.016 23.3337 203.069 39.847 202.953 40.5503C202.683 42.177 201.269 43.3337 199.669 43.3337ZM186.329 43.3337C184.733 43.3337 183.323 42.1837 183.046 40.557C182.923 39.857 179.863 23.3337 162.999 23.3337C161.159 23.3337 159.666 21.8403 159.666 20.0003C159.666 18.1603 161.159 16.667 162.999 16.667C181.053 16.667 188.306 31.5703 189.619 39.4503C189.923 41.267 188.696 42.9837 186.879 43.287C186.696 43.3203 186.509 43.3337 186.329 43.3337ZM171.033 59.6403C163.249 59.6403 158.133 56.317 157.819 56.107C156.289 55.087 155.876 53.017 156.896 51.4837C157.916 49.9503 159.983 49.5337 161.519 50.5603C161.849 50.7737 170.193 56.0137 181.513 50.3537C183.163 49.5303 185.163 50.2003 185.986 51.8437C186.809 53.4903 186.143 55.4937 184.496 56.317C179.513 58.8037 174.936 59.6403 171.033 59.6403ZM214.969 59.6403C211.063 59.6403 206.486 58.8037 201.509 56.3137C199.863 55.4903 199.196 53.487 200.019 51.8403C200.846 50.1937 202.846 49.527 204.493 50.3503C215.826 56.017 224.156 50.7703 224.506 50.547C226.039 49.5537 228.109 49.9803 229.113 51.5103C230.119 53.0403 229.709 55.0903 228.186 56.107C227.866 56.317 222.749 59.6403 214.969 59.6403ZM219.669 90.0003C218.653 90.0003 217.656 89.5403 216.999 88.667C216.916 88.5537 207.726 76.667 192.999 76.667C178.276 76.667 169.086 88.5537 168.993 88.677C167.883 90.137 165.789 90.427 164.326 89.3237C162.859 88.217 162.563 86.137 163.666 84.667C164.116 84.067 174.873 70.0003 192.999 70.0003C211.126 70.0003 221.883 84.0703 222.333 84.667C223.439 86.137 223.139 88.227 221.666 89.3303C221.066 89.7837 220.366 90.0003 219.669 90.0003Z" fill="#664500"/>
<path d="M184.304 66.9328C182.794 66.2828 181.041 66.8428 180.174 68.2328L163.507 94.8995C162.867 95.9295 162.831 97.2228 163.421 98.2828C164.007 99.3428 165.121 99.9995 166.334 99.9995H176.334C177.864 99.9995 179.197 98.9595 179.567 97.4728L186.234 70.8062C186.631 69.2195 185.814 67.5728 184.304 66.9328ZM222.494 94.8995L205.827 68.2328C204.954 66.8395 203.204 66.2862 201.701 66.9328C200.191 67.5728 199.371 69.2195 199.771 70.8062L206.437 97.4728C206.807 98.9595 208.137 99.9995 209.667 99.9995H219.667C220.877 99.9995 221.994 99.3428 222.584 98.2795C223.171 97.2228 223.137 95.9262 222.494 94.8995Z" fill="#F5F8FA"/>
<path d="M239.607 100.593C239.617 100.393 239.667 100.203 239.667 100C239.667 94.48 235.187 90 229.667 90C226.243 90 223.227 91.7267 221.423 94.35C219.857 93.7 218.137 93.3333 216.333 93.3333C208.97 93.3333 203 99.3033 203 106.667C203 114.03 208.97 120 216.333 120C220.883 120 224.893 117.71 227.3 114.23C228.9 117.63 232.326 120 236.333 120C241.856 120 246.333 115.523 246.333 110C246.333 105.627 243.513 101.953 239.607 100.593ZM169.667 93.3333C167.86 93.3333 166.147 93.7 164.577 94.35C162.773 91.7267 159.757 90 156.333 90C150.813 90 146.333 94.48 146.333 100C146.333 100.203 146.38 100.393 146.393 100.593C142.487 101.953 139.667 105.627 139.667 110C139.667 115.523 144.143 120 149.667 120C153.673 120 157.103 117.63 158.697 114.23C161.107 117.71 165.113 120 169.667 120C177.03 120 183 114.03 183 106.667C183 99.3033 177.03 93.3333 169.667 93.3333Z" fill="#E1E8ED"/>
</svg>
