<svg width="34" height="34" viewBox="0 0 34 34" fill="none" xmlns="http://www.w3.org/2000/svg">
<g clip-path="url(#clip0)">
<path fill-rule="evenodd" clip-rule="evenodd" d="M9.91667 15.5835V18.9835H15.5408C15.3142 20.4412 13.8408 23.2618 9.91667 23.2618C6.53083 23.2618 3.76833 20.4582 3.76833 17.0002C3.76833 13.5435 6.53083 10.7385 9.91667 10.7385C11.8433 10.7385 13.1325 11.5602 13.8692 12.2685L16.5608 9.676C14.8325 8.061 12.5942 7.0835 9.91667 7.0835C4.43417 7.0835 0 11.5177 0 17.0002C0 22.4827 4.43417 26.9168 9.91667 26.9168C15.64 26.9168 19.4381 22.8935 19.4381 17.2268C19.4381 16.5752 19.3658 16.0793 19.2808 15.5835H9.91667ZM9.91667 15.5835L34 18.4168H29.75V22.6668H26.9167V18.4168H22.6667V15.5835H26.9167V11.3335H29.75V15.5835H34V18.4168L9.91667 15.5835Z" fill="white"/>
</g>
<defs>
<clipPath id="clip0">
<rect width="34" height="34" fill="white"/>
</clipPath>
</defs>
</svg>
