<svg width="120" height="120" viewBox="0 0 120 120" fill="none" xmlns="http://www.w3.org/2000/svg">
<path d="M120 60C120 93.1367 93.1367 120 60 120C26.8667 120 0 93.1367 0 60C0 26.8667 26.8667 0 60 0C93.1367 0 120 26.8667 120 60Z" fill="#FFCC4D"/>
<path d="M38.3333 68.6668C42.9357 68.6668 46.6667 63.4435 46.6667 57.0002C46.6667 50.5568 42.9357 45.3335 38.3333 45.3335C33.731 45.3335 30 50.5568 30 57.0002C30 63.4435 33.731 68.6668 38.3333 68.6668Z" fill="#664500"/>
<path d="M81.6673 68.6668C86.2697 68.6668 90.0007 63.4435 90.0007 57.0002C90.0007 50.5568 86.2697 45.3335 81.6673 45.3335C77.0649 45.3335 73.334 50.5568 73.334 57.0002C73.334 63.4435 77.0649 68.6668 81.6673 68.6668Z" fill="#664500"/>
<path d="M19.9959 42C19.3025 42 18.5992 41.7833 17.9992 41.3333C16.5259 40.23 16.2292 38.14 17.3325 36.6667C28.2058 22.1667 42.7192 22 43.3325 22C45.1725 22 46.6658 23.4933 46.6658 25.3333C46.6658 27.17 45.1825 28.66 43.3458 28.6667C42.8292 28.6733 31.4525 28.9533 22.6659 40.6667C22.0125 41.54 21.0092 42 19.9959 42ZM100.003 42C98.9858 42 97.9892 41.54 97.3325 40.6667C88.5325 28.93 77.1292 28.6733 76.6458 28.6667C74.8125 28.6467 73.3325 27.1467 73.3425 25.3167C73.3525 23.48 74.8325 22 76.6658 22C77.2792 22 91.7892 22.1667 102.666 36.6667C103.773 38.14 103.473 40.23 101.999 41.3333C101.399 41.7833 100.699 42 100.003 42ZM78.2825 94.93C78.2458 94.7833 74.4659 80.3333 59.9992 80.3333C45.5325 80.3333 41.7525 94.7833 41.7159 94.93C41.5392 95.64 41.8625 96.3667 42.4892 96.7433C43.1158 97.1167 43.9325 97.03 44.4759 96.5433C44.5059 96.5167 47.8525 93.6667 59.9992 93.6667C71.9658 93.6667 75.3892 96.4333 75.5192 96.5433C75.8358 96.8433 76.2492 97 76.6658 97C76.9459 97 77.2292 96.93 77.4859 96.7867C78.1392 96.4133 78.4659 95.6567 78.2825 94.93Z" fill="#664500"/>
</svg>
