<svg width="254" height="120" viewBox="0 0 254 120" fill="none" xmlns="http://www.w3.org/2000/svg">
<path d="M253 60C253 93.1367 226.137 120 193 120C159.867 120 133 93.1367 133 60C133 26.8667 159.867 0 193 0C226.137 0 253 26.8667 253 60Z" fill="#FFCC4D"/>
<path d="M171.333 66.6668C175.936 66.6668 179.667 61.4435 179.667 55.0002C179.667 48.5568 175.936 43.3335 171.333 43.3335C166.731 43.3335 163 48.5568 163 55.0002C163 61.4435 166.731 66.6668 171.333 66.6668Z" fill="#664500"/>
<path d="M214.667 66.6668C219.27 66.6668 223.001 61.4435 223.001 55.0002C223.001 48.5568 219.27 43.3335 214.667 43.3335C210.065 43.3335 206.334 48.5568 206.334 55.0002C206.334 61.4435 210.065 66.6668 214.667 66.6668Z" fill="#664500"/>
<path d="M152.996 40C152.303 40 151.599 39.7833 150.999 39.3333C149.526 38.23 149.229 36.14 150.333 34.6667C161.206 20.1667 175.719 20 176.333 20C178.173 20 179.666 21.4933 179.666 23.3333C179.666 25.17 178.183 26.66 176.346 26.6667C175.829 26.6733 164.453 26.9533 155.666 38.6667C155.013 39.54 154.009 40 152.996 40ZM233.003 40C231.986 40 230.989 39.54 230.333 38.6667C221.533 26.93 210.129 26.6733 209.646 26.6667C207.813 26.6467 206.333 25.1467 206.343 23.3167C206.353 21.48 207.833 20 209.666 20C210.279 20 224.789 20.1667 235.666 34.6667C236.773 36.14 236.473 38.23 234.999 39.3333C234.399 39.7833 233.699 40 233.003 40ZM211.283 92.93C211.246 92.7833 207.466 78.3333 192.999 78.3333C178.533 78.3333 174.753 92.7833 174.716 92.93C174.539 93.64 174.863 94.3667 175.489 94.7433C176.116 95.1167 176.933 95.03 177.476 94.5433C177.506 94.5167 180.853 91.6667 192.999 91.6667C204.966 91.6667 208.389 94.4333 208.519 94.5433C208.836 94.8433 209.249 95 209.666 95C209.946 95 210.229 94.93 210.486 94.7867C211.139 94.4133 211.466 93.6567 211.283 92.93Z" fill="#664500"/>
<path d="M52.9277 30.9793H66.1735C66.5721 30.3378 66.6874 29.5047 66.3763 28.7187L52.9312 12.9146V30.9793H52.9277Z" fill="#EF9645"/>
<path d="M41.8361 74.3682C41.6369 73.1959 41.4026 72.0875 41.116 71.0999C38.9486 63.6328 37.1307 60.472 37.9068 52.6455C38.9206 47.3248 38.8612 36.6465 53.5787 38.3092C57.4661 38.7492 63.5174 41.423 66.9818 41.3659C68.964 41.3323 70.4078 37.4795 70.5371 36.1964C70.7154 34.4295 67.5132 31.4266 66.1743 30.9765C64.8354 30.5264 59.1406 28.8569 56.8019 28.2086C53.1697 27.1976 53.3585 22.4815 53.1278 20.802C53.0194 20.0126 53.4214 19.2333 54.1555 18.8168C54.8897 18.4003 55.4665 18.7899 56.1796 19.2367L59.2735 21.4133C61.0109 22.8443 56.2181 25.5785 57.5151 26.0353C57.5151 26.0353 63.6503 28.2489 66.2792 28.7091C67.7195 28.9611 72.6906 23.5732 72.9807 20.4124C73.208 17.9267 61.1018 6.69748 52.4705 2.33748C49.4361 0.80577 47.6567 -0.08437 45.6571 0.00632346C43.2694 0.113812 42.5178 1.02075 39.5464 3.46611C26.0978 14.5206 13.0443 38.4268 11.1285 43.7172C3.27683 65.4198 2.04979 76.8539 1.77012 83.3133C1.59882 85.2951 1.50444 87.2669 1.50444 89.2185C1.73167 89.2185 -1.99142 106.014 1.50444 109.373C5.00029 112.732 20.1234 112.732 20.1234 112.732C55.0819 126.131 120 122.634 120 88.4358C120 47.5499 54.2324 52.9747 41.8361 74.3682Z" fill="#FFDC5D"/>
<path d="M69.1954 107.289C58.1485 106.174 49.5208 100.971 49.0348 100.672C47.4093 99.6741 46.9338 97.6049 47.9686 96.0396C49.0034 94.4743 51.1603 94.0142 52.7929 95.0051C52.9327 95.089 66.7868 103.376 80.2214 99.9327C87.6501 98.0315 93.7398 92.8284 98.3194 84.4779C99.2214 82.832 101.347 82.2072 103.042 83.0705C104.748 83.9337 105.406 85.966 104.507 87.6085C98.9662 97.7057 91.3836 104.044 81.9693 106.439C77.575 107.554 73.2227 107.695 69.1954 107.289Z" fill="#EF9645"/>
<path d="M254 60C254 93.1367 227.137 120 194 120C160.867 120 134 93.1367 134 60C134 26.8667 160.867 0 194 0C227.137 0 254 26.8667 254 60Z" fill="#FFCC4D"/>
<path d="M194 73.3332C181.923 73.3332 173.91 71.9265 164 69.9998C161.736 69.5632 157.333 69.9998 157.333 76.6665C157.333 89.9998 172.65 106.667 194 106.667C215.346 106.667 230.666 89.9998 230.666 76.6665C230.666 69.9998 226.263 69.5598 224 69.9998C214.09 71.9265 206.076 73.3332 194 73.3332Z" fill="#664500"/>
<path d="M164 76.667C164 76.667 174 80.0003 194 80.0003C214 80.0003 224 76.667 224 76.667C224 76.667 217.333 90.0003 194 90.0003C170.667 90.0003 164 76.667 164 76.667Z" fill="white"/>
<path d="M154.003 66.6667C152.99 66.6667 151.99 66.2067 151.333 65.3333C150.226 63.8633 150.526 61.7733 152 60.67C152.476 60.3133 161.836 53.3933 174.853 50.8933C166.603 46.7567 157.446 46.6667 157.33 46.6667C155.49 46.66 154 45.1667 154.003 43.3267C154.003 41.49 155.493 40 157.333 40C158.07 40 175.506 40.1267 186.356 50.9767C187.31 51.93 187.596 53.3633 187.08 54.61C186.563 55.8567 185.346 56.6667 184 56.6667C168.623 56.6667 156.123 65.9067 156 66C155.4 66.45 154.696 66.6667 154.003 66.6667ZM233.996 66.6633C233.303 66.6633 232.603 66.45 232.003 66.0033C231.876 65.9067 219.3 56.6667 204 56.6667C202.653 56.6667 201.433 55.8567 200.92 54.61C200.403 53.3633 200.69 51.93 201.643 50.9767C212.496 40.1267 229.93 40 230.666 40C232.506 40 233.993 41.49 233.996 43.3267C234 45.1667 232.51 46.66 230.673 46.6667C230.553 46.6667 221.396 46.7567 213.146 50.8933C226.163 53.3933 235.523 60.31 235.996 60.67C237.466 61.7733 237.766 63.8567 236.666 65.33C236.013 66.2 235.013 66.6633 233.996 66.6633Z" fill="#664500"/>
</svg>
