<svg width="17" height="17" viewBox="0 0 17 17" fill="none" xmlns="http://www.w3.org/2000/svg">
<path d="M12.7498 15.5832C11.1973 15.5794 9.93544 14.3299 9.91647 12.7775V11.3332H7.08314V12.764C7.07532 14.327 5.80336 15.5884 4.24041 15.5832C2.67746 15.578 1.41392 14.3081 1.41651 12.7452C1.4191 11.1822 2.68685 9.91654 4.24981 9.91652H5.66647V7.08319H4.24981C2.68685 7.08317 1.4191 5.81751 1.41651 4.25455C1.41392 2.6916 2.67746 1.42174 4.24041 1.41652C5.80336 1.41133 7.07532 2.67275 7.08314 4.23569V5.66652H9.91647V4.24985C9.91647 2.68505 11.185 1.41652 12.7498 1.41652C14.3146 1.41652 15.5831 2.68505 15.5831 4.24985C15.5831 5.81466 14.3146 7.08319 12.7498 7.08319H11.3331V9.91652H12.7498C14.3146 9.91652 15.5831 11.185 15.5831 12.7499C15.5831 14.3147 14.3146 15.5832 12.7498 15.5832ZM11.3331 11.3332V12.7499C11.3331 13.5323 11.9674 14.1665 12.7498 14.1665C13.5322 14.1665 14.1665 13.5323 14.1665 12.7499C14.1665 11.9675 13.5322 11.3332 12.7498 11.3332H11.3331ZM4.24981 11.3332C3.4674 11.3332 2.83314 11.9675 2.83314 12.7499C2.83314 13.5323 3.4674 14.1665 4.24981 14.1665C4.62675 14.1705 4.98942 14.0226 5.25598 13.756C5.52253 13.4895 5.67049 13.1268 5.66647 12.7499V11.3332H4.24981ZM7.08314 7.08319V9.91652H9.91647V7.08319H7.08314ZM12.7498 2.83319C12.3729 2.82917 12.0102 2.97713 11.7436 3.24368C11.4771 3.51024 11.3291 3.87291 11.3331 4.24985V5.66652H12.7498C13.1267 5.67054 13.4894 5.52258 13.756 5.25602C14.0225 4.98947 14.1705 4.6268 14.1665 4.24985C14.1705 3.87291 14.0225 3.51024 13.756 3.24368C13.4894 2.97713 13.1267 2.82917 12.7498 2.83319ZM4.24981 2.83319C3.87286 2.82917 3.51019 2.97713 3.24363 3.24368C2.97708 3.51024 2.82912 3.87291 2.83314 4.24985C2.82912 4.6268 2.97708 4.98947 3.24363 5.25602C3.51019 5.52258 3.87286 5.67054 4.24981 5.66652H5.66647V4.24985C5.67049 3.87291 5.52253 3.51024 5.25598 3.24368C4.98942 2.97713 4.62675 2.82917 4.24981 2.83319Z" fill="#FAFAFA"/>
</svg>
