<svg width="24" height="25" viewBox="0 0 24 25" fill="none" xmlns="http://www.w3.org/2000/svg">
<g clip-path="url(#clip0)">
<path d="M24 4.74701C23.117 5.15534 22.168 5.43034 21.172 5.5543C22.189 4.91992 22.97 3.91471 23.337 2.7168C22.386 3.3043 21.332 3.73138 20.21 3.96159C19.313 2.96471 18.032 2.3418 16.616 2.3418C13.437 2.3418 11.101 5.43138 11.819 8.63867C7.728 8.42513 4.1 6.38346 1.671 3.28034C0.381 5.58555 1.002 8.60117 3.194 10.1283C2.388 10.1012 1.628 9.87096 0.965 9.48659C0.911 11.8626 2.546 14.0855 4.914 14.5803C4.221 14.7762 3.462 14.822 2.69 14.6678C3.316 16.7053 5.134 18.1876 7.29 18.2293C5.22 19.9199 2.612 20.6751 0 20.3543C2.179 21.8095 4.768 22.6585 7.548 22.6585C16.69 22.6585 21.855 14.6158 21.543 7.40221C22.505 6.67826 23.34 5.77513 24 4.74701Z" fill="white"/>
</g>
<defs>
<clipPath id="clip0">
<rect width="24" height="25" fill="white"/>
</clipPath>
</defs>
</svg>
